<svg xmlns="http://www.w3.org/2000/svg" preserveAspectRatio="xMidYMid" viewBox="0 0 100 100"><circle cx="50" cy="50" r="48.7" fill="#707071"/><path fill="#232323" d="m50 100c-27.6 0-50-22.4-50-50s22.4-50 50-50 50 22.4 50 50-22.4 50-50 50zm0-97.3c-26.1 0-47.3 21.2-47.3 47.3s21.2 47.3 47.3 47.3 47.3-21.2 47.3-47.3-21.2-47.3-47.3-47.3z"/><g fill="#fff"><path d="m18.2 71.2h63.6l-20-23.5-13.1 15.2-13.1-25.8z"/><path d="m18.2 71.2h63.6l-20-23.5-13.1 15.2-13.1-25.8z"/><circle cx="56.9" cy="31.9" r="9.2"/><circle cx="56.9" cy="31.9" r="9.2"/></g></svg>