<svg xmlns="http://www.w3.org/2000/svg" preserveAspectRatio="xMidYMid" viewBox="0 0 1765.8 1765.8"><path d="M882.9 159.1c235.8 0 263.7.9 356.8 5.1 86.1 3.9 132.8 18.3 163.9 30.4 41.2 16 70.6 35.2 101.5 66 30.9 30.9 50 60.3 66 101.5 12.1 31.1 26.5 77.9 30.4 163.9 4.2 93.1 5.1 121 5.1 356.8s-.9 263.7-5.1 356.8c-3.9 86.1-18.3 132.8-30.4 163.9-16 41.2-35.2 70.6-66 101.5-30.9 30.9-60.3 50-101.5 66-31.1 12.1-77.9 26.5-163.9 30.4-93.1 4.2-121 5.1-356.8 5.1s-263.7-.9-356.8-5.1c-86.1-3.9-132.8-18.3-163.9-30.4-41.2-16-70.6-35.2-101.5-66-30.9-30.9-50-60.3-66-101.5-12.1-31.1-26.5-77.9-30.4-163.9-4.2-93.1-5.1-121-5.1-356.8s.9-263.7 5.1-356.8c3.9-86.1 18.3-132.8 30.4-163.9 16-41.2 35.2-70.6 66-101.5 30.9-30.9 60.3-50 101.5-66 31.1-12.1 77.9-26.5 163.9-30.4 93.1-4.2 121.1-5.1 356.8-5.1m0-159.1C643.1 0 613 1 518.9 5.3c-94 4.3-158.2 19.2-214.3 41-58.1 22.6-107.3 52.8-156.4 101.8-49.1 49.1-79.3 98.3-101.8 156.4-21.8 56.2-36.8 120.3-41 214.3C1 613.1 0 643.1 0 882.9s1 269.9 5.3 364c4.3 94 19.2 158.2 41 214.3 22.6 58.1 52.8 107.3 101.8 156.4 49.1 49.1 98.3 79.3 156.4 101.8 56.2 21.8 120.3 36.8 214.3 41 94.2 4.3 124.2 5.3 364 5.3s269.9-1 364-5.3c94-4.3 158.2-19.2 214.3-41 58.1-22.6 107.3-52.8 156.4-101.8 49.1-49.1 79.3-98.3 101.8-156.4 21.8-56.2 36.8-120.3 41-214.3 4.3-94.2 5.3-124.2 5.3-364s-1-269.9-5.3-364c-4.3-94-19.2-158.2-41-214.3-22.6-58.1-52.8-107.3-101.8-156.4-49.1-49.1-98.3-79.3-156.4-101.8-56.2-21.8-120.3-36.8-214.3-41C1152.8 1 1122.7 0 882.9 0z"/><path d="M882.9 429.5c-250.4 0-453.4 203-453.4 453.4s203 453.4 453.4 453.4 453.4-203 453.4-453.4-203-453.4-453.4-453.4zm0 747.7c-162.5 0-294.3-131.8-294.3-294.3s131.8-294.3 294.3-294.3 294.3 131.8 294.3 294.3-131.7 294.3-294.3 294.3z"/><circle cx="1354.2" cy="411.6" r="106"/></svg>